<svg xmlns="http://www.w3.org/2000/svg" viewBox="0 0 476 476"><path d="M44,70H4a4,4,0,0,1-4-4V26a4,4,0,0,1,4-4H44a4,4,0,0,1,4,4V66A4,4,0,0,1,44,70ZM8,62H40V30H8Z" style="fill:#596155"/><path d="M428,70H388a4,4,0,0,1-4-4V26a4,4,0,0,1,4-4h40a4,4,0,0,1,4,4V66A4,4,0,0,1,428,70Zm-36-8h32V30H392Z" style="fill:#596155"/><path d="M44,454H4a4,4,0,0,1-4-4V410a4,4,0,0,1,4-4H44a4,4,0,0,1,4,4v40A4,4,0,0,1,44,454ZM8,446H40V414H8Z" style="fill:#596155"/><path d="M428,454H388a4,4,0,0,1-4-4V410a4,4,0,0,1,4-4h40a4,4,0,0,1,4,4v40A4,4,0,0,1,428,454Zm-36-8h32V414H392Z" style="fill:#596155"/><path d="M388,434H44a4,4,0,0,1-4-4V414H24a4,4,0,0,1-4-4V66a4,4,0,0,1,4-4H40V46a4,4,0,0,1,4-4H388a4,4,0,0,1,4,4V62h16a4,4,0,0,1,4,4V270a4,4,0,0,1-8,0V70H388a4,4,0,0,1-4-4V50H48V66a4,4,0,0,1-4,4H28V406H44a4,4,0,0,1,4,4v16H384V410a4,4,0,0,1,4-4h16V366a4,4,0,0,1,8,0v44a4,4,0,0,1-4,4H392v16A4,4,0,0,1,388,434Z" style="fill:#596155"/><path d="M136,466H120a4,4,0,0,1,0-8h16a4,4,0,0,1,0,8Z" style="fill:#596155"/><path d="M312,466H152a4,4,0,0,1,0-8H312a4,4,0,0,1,0,8Z" style="fill:#596155"/><path d="M312,18H296a4,4,0,0,1,0-8h16a4,4,0,0,1,0,8Z" style="fill:#596155"/><path d="M280,18H120a4,4,0,0,1,0-8H280a4,4,0,0,1,0,8Z" style="fill:#596155"/><path d="M246,174a72,72,0,1,1-72-72A72,72,0,0,1,246,174Z" style="fill:#83e965"/><path d="M174,250a76,76,0,1,1,76-76A76.09,76.09,0,0,1,174,250Zm0-144a68,68,0,1,0,68,68A68.07,68.07,0,0,0,174,106Z" style="fill:#596155"/><path d="M318,250a3.92,3.92,0,0,1-1.8-.4l-144-72A4,4,0,0,1,170,174a4.17,4.17,0,0,1,2.2-3.6l144-72a4.16,4.16,0,0,1,3.9.2A3.9,3.9,0,0,1,322,102V246a4,4,0,0,1-4,4ZM182.9,174,314,239.5v-131Z" style="fill:#596155"/><path d="M184,354a4,4,0,0,1-1.5-.3l-80-32a4,4,0,0,1,0-7.4l80-32a4.06,4.06,0,0,1,3.7.4A4,4,0,0,1,188,286v64a4,4,0,0,1-1.8,3.3A3.41,3.41,0,0,1,184,354Zm-69.2-36L180,344.1V291.9Z" style="fill:#596155"/><path d="M140.1,336.4a4,4,0,0,1-4-4v-23l-30.6,12.2a4,4,0,0,1-3-7.4l36.1-14.4a3.79,3.79,0,0,1,3.7.4,4,4,0,0,1,1.8,3.3v28.9A4,4,0,0,1,140.1,336.4Z" style="fill:#596155"/><path d="M452,350a20.06,20.06,0,0,0,20-20V306a20.06,20.06,0,0,0-20-20H184v64Z" style="fill:#cbffb4"/><path d="M452,354H184a4,4,0,0,1-4-4V286a4,4,0,0,1,4-4H452a24.07,24.07,0,0,1,24,24v24A24.07,24.07,0,0,1,452,354Zm-264-8H452a16,16,0,0,0,16-16V306a16,16,0,0,0-16-16H188Z" style="fill:#596155"/><path d="M432,350H384V286h48Z" style="fill:#f2ffa8"/><path d="M432,354H384a4,4,0,0,1-4-4V286a4,4,0,0,1,4-4h48a4,4,0,0,1,4,4v64A4,4,0,0,1,432,354Zm-44-8h40V290H388Z" style="fill:#596155"/><path d="M384,322H184a4,4,0,0,1,0-8H384a4,4,0,0,1,0,8Z" style="fill:#596155"/></svg>