<svg xmlns="http://www.w3.org/2000/svg" viewBox="0 0 488 488"><path d="M72,404V84A84.12,84.12,0,0,1,156,0H300a84.12,84.12,0,0,1,84,84V404a84.12,84.12,0,0,1-84,84H156A84.12,84.12,0,0,1,72,404ZM376,84A76.09,76.09,0,0,0,300,8H156A76.09,76.09,0,0,0,80,84V404a76.09,76.09,0,0,0,76,76H300a76.09,76.09,0,0,0,76-76Z" style="fill:#596155"/><path d="M228,461.1a25.9,25.9,0,1,1,25.9-25.9A25.91,25.91,0,0,1,228,461.1Z" style="fill:#cbffb4"/><path d="M199.3,435.3A28.7,28.7,0,1,1,228,464,28.76,28.76,0,0,1,199.3,435.3Zm51.7,0a23,23,0,1,0-23,23A23,23,0,0,0,251,435.3Z" style="fill:#596155"/><path d="M116,381.6V72a8,8,0,0,1,8-8H332a8,8,0,0,1,8,8V381.6a8,8,0,0,1-8,8H124A8,8,0,0,1,116,381.6Z" style="fill:#83e965"/><path d="M112,381.6V72a12,12,0,0,1,12-12H332a12,12,0,0,1,12,12V381.6a12,12,0,0,1-12,12H124A12,12,0,0,1,112,381.6ZM336,72a4,4,0,0,0-4-4H124a4,4,0,0,0-4,4V381.6a4,4,0,0,0,4,4H332a4,4,0,0,0,4-4Z" style="fill:#596155"/><path d="M212,32h40a4,4,0,0,1,0,8H212a4,4,0,0,1,0-8Z" style="fill:#596155"/><path d="M32,44V28a4,4,0,0,1,8,0V44a4,4,0,0,1-8,0Z" style="fill:#596155"/><path d="M32,188V60a4,4,0,0,1,8,0V188a4,4,0,0,1-8,0Z" style="fill:#596155"/><path d="M416,460V444a4,4,0,0,1,8,0v16a4,4,0,0,1-8,0Z" style="fill:#596155"/><path d="M416,428V300a4,4,0,0,1,8,0V428a4,4,0,0,1-8,0Z" style="fill:#596155"/><path d="M432,76V44a4,4,0,0,1,8,0V76a4,4,0,0,1-8,0Z" style="fill:#596155"/><path d="M416,60a4,4,0,0,1,4-4h32a4,4,0,0,1,0,8H420A4,4,0,0,1,416,60Z" style="fill:#596155"/><path d="M400,36V4a4,4,0,0,1,8,0V36a4,4,0,0,1-8,0Z" style="fill:#596155"/><path d="M384,20a4,4,0,0,1,4-4h32a4,4,0,0,1,0,8H388A4,4,0,0,1,384,20Z" style="fill:#596155"/></svg>