<svg xmlns="http://www.w3.org/2000/svg" viewBox="0 0 472 472"><path d="M388,227.5H376V220a8,8,0,0,0-8-8H356a8,8,0,0,0-8,8v12H252v24h96v12a8,8,0,0,0,8,8h12a8,8,0,0,0,8-8v-8.5h12a8,8,0,0,0,8-8v-16A8,8,0,0,0,388,227.5Z" style="fill:#f2ffa8"/><path d="M40,432H24a4,4,0,0,1,0-8H40a4,4,0,0,1,0,8Z" style="fill:#596155"/><path d="M176,432H56a4,4,0,0,1,0-8H176a4,4,0,0,1,0,8Z" style="fill:#596155"/><path d="M408,472h-8a4,4,0,0,1-4-4V404a4,4,0,0,1,8,0v60h4a36.11,36.11,0,0,0,36-36V400a4,4,0,0,1,8,0v28A44,44,0,0,1,408,472Z" style="fill:#596155"/><path d="M220,24H188a4,4,0,0,1,0-8h32a4,4,0,0,1,0,8Z" style="fill:#596155"/><path d="M204,40a4,4,0,0,1-4-4V4a4,4,0,0,1,8,0V36A4,4,0,0,1,204,40Z" style="fill:#596155"/><path d="M180,64H148a4,4,0,0,1,0-8h32a4,4,0,0,1,0,8Z" style="fill:#596155"/><path d="M164,80a4,4,0,0,1-4-4V44a4,4,0,0,1,8,0V76A4,4,0,0,1,164,80Z" style="fill:#596155"/><path d="M448,80H432a4,4,0,0,1,0-8h16a4,4,0,0,1,0,8Z" style="fill:#596155"/><path d="M416,80H296a4,4,0,0,1,0-8H416a4,4,0,0,1,0,8Z" style="fill:#596155"/><path d="M448,432a4,4,0,0,1-4-4,36.11,36.11,0,0,0-36-36H64a44.06,44.06,0,0,1-44-44h0V76A44,44,0,0,1,64,32H92a4,4,0,0,1,4,4V308a4,4,0,0,1-4,4H64a36,36,0,0,0,0,72H408a44,44,0,0,1,36,18.7V140a20.06,20.06,0,0,0-20-20H108a4,4,0,0,1,0-8H424a28.08,28.08,0,0,1,28,28V428A4,4,0,0,1,448,432ZM64,40A36.11,36.11,0,0,0,28,76V322.7A44,44,0,0,1,64,304H88V40Z" style="fill:#596155"/><path d="M368,280H356a12,12,0,0,1-12-12v-8H252a4,4,0,0,1,0-8h96a4,4,0,0,1,4,4v12a4,4,0,0,0,4,4h12a4,4,0,0,0,4-4v-8.5a4,4,0,0,1,4-4h12a4,4,0,0,0,4-4v-16a4,4,0,0,0-4-4H376a4,4,0,0,1-4-4V220a4,4,0,0,0-4-4H356a4,4,0,0,0-4,4v12a4,4,0,0,1-4,4H252a4,4,0,0,1,0-8h92v-8a12,12,0,0,1,12-12h12a12,12,0,0,1,12,12v3.5h8a12,12,0,0,1,12,12v16a12,12,0,0,1-12,12h-8V268A12,12,0,0,1,368,280Z" style="fill:#596155"/><path d="M264,296H224a3.75,3.75,0,0,1-3-1.4,3.81,3.81,0,0,1-.9-3.2l5.7-34.2A27.95,27.95,0,0,1,244,208a27.38,27.38,0,0,1,15.4,4.7,4,4,0,0,1-4.4,6.6,19.71,19.71,0,0,0-11-3.3,20.06,20.06,0,0,0-20,20,19.78,19.78,0,0,0,8.4,16.2,4,4,0,0,1,1.6,3.9l-5.3,31.8h30.6l-2.6-15.3a4,4,0,0,1,7.9-1.3l3.3,20a3.72,3.72,0,0,1-.9,3.2A3.56,3.56,0,0,1,264,296Z" style="fill:#596155"/><path d="M279.8,289.4A16.1,16.1,0,0,1,264,308.1H224a15.93,15.93,0,0,1-12.2-5.7,16.44,16.44,0,0,1-3.6-13l4.7-28.3a40,40,0,0,1,53.2-58.4,16.19,16.19,0,0,1,7.2,13.3H316V184a20.06,20.06,0,0,0-20-20H192a20.06,20.06,0,0,0-20,20V320a20.06,20.06,0,0,0,20,20H296a20.06,20.06,0,0,0,20-20V272H276.9Z" style="fill:#83e965"/><path d="M296,344H192a24.07,24.07,0,0,1-24-24V184a24.07,24.07,0,0,1,24-24H296a24.07,24.07,0,0,1,24,24v32a4,4,0,0,1-8,0V184a16,16,0,0,0-16-16H192a16,16,0,0,0-16,16V320a16,16,0,0,0,16,16H296a16,16,0,0,0,16-16V272a4,4,0,0,1,8,0v48A24.07,24.07,0,0,1,296,344Z" style="fill:#596155"/></svg>