<svg xmlns="http://www.w3.org/2000/svg" viewBox="0 0 524.41 113.39"><path d="M518.33,73.7a3.69,3.69,0,0,1,1.48,1.5,4.91,4.91,0,0,1,0,4.44,3.74,3.74,0,0,1-1.48,1.52,4.33,4.33,0,0,1-2.18.55,4.41,4.41,0,0,1-2.2-.55,3.89,3.89,0,0,1-1.49-1.52,4.6,4.6,0,0,1-.53-2.21,4.51,4.51,0,0,1,.53-2.23A3.71,3.71,0,0,1,514,73.7a4.5,4.5,0,0,1,2.2-.53A4.43,4.43,0,0,1,518.33,73.7Zm-.2,7a3.17,3.17,0,0,0,1.31-1.33,4.23,4.23,0,0,0,.46-2,4.33,4.33,0,0,0-.46-2,3.19,3.19,0,0,0-1.31-1.34,4,4,0,0,0-2-.48,4,4,0,0,0-2,.48,3.25,3.25,0,0,0-1.31,1.34,4.33,4.33,0,0,0-.45,2,4.23,4.23,0,0,0,.45,2,3.23,3.23,0,0,0,1.31,1.33,4,4,0,0,0,2,.48A4,4,0,0,0,518.13,80.75Zm-.27-3.58a1.79,1.79,0,0,1-1.11.48l1.51,2.3h-.8L516,77.67h-.77V80h-.72V74.63h1.89a2,2,0,0,1,1.38.41,1.42,1.42,0,0,1,.47,1.1A1.45,1.45,0,0,1,517.86,77.17Zm-2.64,0h1.11c.77,0,1.16-.32,1.16-1a.89.89,0,0,0-.27-.71,1.4,1.4,0,0,0-.89-.23h-1.11Z" style="fill:#989898"/><path d="M176.91,44.47A18.49,18.49,0,0,1,184,51.61,20.77,20.77,0,0,1,186.55,62,20.91,20.91,0,0,1,184,72.36a18.44,18.44,0,0,1-7.06,7.17,20.77,20.77,0,0,1-19.94,0,18.37,18.37,0,0,1-7.06-7.17A20.91,20.91,0,0,1,147.33,62a20.77,20.77,0,0,1,2.58-10.36A18.42,18.42,0,0,1,157,44.47a20.69,20.69,0,0,1,19.94,0Zm-16,6.22a10.64,10.64,0,0,0-4.08,4.48,14.91,14.91,0,0,0-1.47,6.8,15,15,0,0,0,1.47,6.81,10.67,10.67,0,0,0,4.08,4.47,12.55,12.55,0,0,0,12.12,0,10.67,10.67,0,0,0,4.08-4.47A15,15,0,0,0,178.55,62a14.91,14.91,0,0,0-1.47-6.8A10.64,10.64,0,0,0,173,50.69a12.62,12.62,0,0,0-12.12,0Z"/><path d="M210,52.36a10.39,10.39,0,0,1,4,4.94V40.58h7.78V81.7H214V75.25a10.52,10.52,0,0,1-4,5,11.59,11.59,0,0,1-6.64,1.86,13.27,13.27,0,0,1-7-1.88,12.78,12.78,0,0,1-4.87-5.48,19,19,0,0,1-1.75-8.41,19.06,19.06,0,0,1,1.75-8.42,12.75,12.75,0,0,1,4.87-5.47,13.19,13.19,0,0,1,7-1.89A11.73,11.73,0,0,1,210,52.36Zm-10.09,7.39a9.26,9.26,0,0,0-2.22,6.56,9.14,9.14,0,0,0,2.22,6.52,8.43,8.43,0,0,0,11.75,0A9,9,0,0,0,214,66.31a9,9,0,0,0-2.31-6.53,8.38,8.38,0,0,0-11.75,0Z"/><path d="M250.09,52.42a13.85,13.85,0,0,1,5.63,5.47,16.62,16.62,0,0,1,2.06,8.42,16.51,16.51,0,0,1-2.06,8.39,14.1,14.1,0,0,1-5.63,5.47,18.07,18.07,0,0,1-16.17,0,14.07,14.07,0,0,1-5.64-5.47,16.51,16.51,0,0,1-2.06-8.39,16.62,16.62,0,0,1,2.06-8.42,13.81,13.81,0,0,1,5.64-5.47,18.24,18.24,0,0,1,16.17,0Zm-13.65,7.19q-2.26,2.31-2.27,6.7T236.44,73a7.85,7.85,0,0,0,11.12,0c1.52-1.54,2.27-3.77,2.27-6.69s-.75-5.16-2.27-6.7a7.85,7.85,0,0,0-11.12,0Z"/><path d="M289.06,54q3.17,3.49,3.17,9.83V81.7h-7.78v-17A8,8,0,0,0,282.56,59a6.73,6.73,0,0,0-5.17-2,6.88,6.88,0,0,0-5.33,2.17,8.86,8.86,0,0,0-2,6.22V81.7h-7.84V50.92h7.84v6.16a9.82,9.82,0,0,1,4-4.86,12,12,0,0,1,6.47-1.75A10.9,10.9,0,0,1,289.06,54Z"/><path d="M314.45,75V81.7h-4.11c-3.45,0-6.09-.84-7.92-2.5s-2.75-4.45-2.75-8.34V57.53h-4.28V50.92h4.28V43.3h7.84v7.62h6.88v6.61h-6.88V71a4.35,4.35,0,0,0,.88,3.11,4.14,4.14,0,0,0,3,.89Z"/><path d="M337.67,52.36a10,10,0,0,1,3.95,4.94V50.92h7.78V81.7h-7.78V75.25a10.08,10.08,0,0,1-3.95,5A11.68,11.68,0,0,1,331,82.08a13.27,13.27,0,0,1-7-1.88,12.78,12.78,0,0,1-4.87-5.48,19,19,0,0,1-1.75-8.41,19.06,19.06,0,0,1,1.75-8.42A12.75,12.75,0,0,1,324,52.42a13.19,13.19,0,0,1,7-1.89A11.82,11.82,0,0,1,337.67,52.36Zm-10.11,7.39a9.26,9.26,0,0,0-2.22,6.56,9.14,9.14,0,0,0,2.22,6.52,8.43,8.43,0,0,0,11.75,0,9,9,0,0,0,2.31-6.47,9,9,0,0,0-2.31-6.53,8.38,8.38,0,0,0-11.75,0Z"/><path d="M363.23,40.58V81.7H355.4V40.58Z"/><path d="M431.68,42.47,422.07,81.7H412.4l-7.33-28.45L397.68,81.7h-9.61l-9.62-39.23H387l6,30.39,7.78-30.39h8.61l7.84,30.39,6-30.39Z"/><path d="M464.57,67.81H442c.11,2.74.86,4.75,2.23,6a7.13,7.13,0,0,0,5.11,2,7.44,7.44,0,0,0,4.53-1.34,5.9,5.9,0,0,0,2.3-3.61h8.28a13.29,13.29,0,0,1-2.61,5.78,13.65,13.65,0,0,1-5.14,4,16.52,16.52,0,0,1-7,1.44,16.35,16.35,0,0,1-8-1.91,13.48,13.48,0,0,1-5.45-5.47,17.22,17.22,0,0,1-1.94-8.39,17.34,17.34,0,0,1,1.94-8.42,13.24,13.24,0,0,1,5.45-5.47,16.56,16.56,0,0,1,8-1.89,16.22,16.22,0,0,1,8,1.89A13.32,13.32,0,0,1,463,57.61a15.07,15.07,0,0,1,1.86,7.53A14.52,14.52,0,0,1,464.57,67.81ZM455,58.64a7.52,7.52,0,0,0-5.25-2,7.71,7.71,0,0,0-5.34,2A8,8,0,0,0,442,64.36H457Q457.13,60.58,455,58.64Z"/><path d="M494.68,52.42a12.75,12.75,0,0,1,4.87,5.47,19.06,19.06,0,0,1,1.75,8.42,19,19,0,0,1-1.75,8.41,12.78,12.78,0,0,1-4.87,5.48,13.27,13.27,0,0,1-7,1.88A11.59,11.59,0,0,1,481,80.22a10.11,10.11,0,0,1-3.91-5V81.7h-7.84V40.58h7.84V57.3A10,10,0,0,1,481,52.36a11.73,11.73,0,0,1,6.64-1.83A13.19,13.19,0,0,1,494.68,52.42Zm-15.3,7.36a9,9,0,0,0-2.31,6.53,9,9,0,0,0,2.31,6.47,8.43,8.43,0,0,0,11.75,0,9.14,9.14,0,0,0,2.22-6.52,9.26,9.26,0,0,0-2.22-6.56,8.38,8.38,0,0,0-11.75,0Z"/><path d="M33.42.54l0,0Z" style="fill:#00eb59"/><path d="M31.26,1.58l.23-.15Z" style="fill:#00eb59"/><path d="M100.7.18H35.75c-.24,0-.47,0-.7,0a3.32,3.32,0,0,0-2.59,3.34V14.15A14.43,14.43,0,0,1,18,28.58H7.11a3.34,3.34,0,0,0-3,2.56q0,.36,0,.72v65A16.38,16.38,0,0,0,20.45,113.2H100.7a16.38,16.38,0,0,0,16.39-16.38V16.57A16.39,16.39,0,0,0,100.7.18Z" style="fill:#00eb59"/><path d="M30.67,2,30.74,2Z" style="fill:#00eb59"/><path d="M88.92,56.69h0a28.34,28.34,0,0,1-56.68,0H20.5a40.08,40.08,0,0,0,80.16,0H88.92Z" style="fill:#fff"/><path d="M32.46,3.56V14.15A14.43,14.43,0,0,1,18,28.58H7.11A3.27,3.27,0,0,0,4.2,30.85,3.63,3.63,0,0,1,6.37,30H17.78A15.05,15.05,0,0,0,32.85,15V3.51A3.36,3.36,0,0,1,34.93.25,3.31,3.31,0,0,0,32.46,3.56Z" style="fill:#00c75e"/><path d="M32.46.89h0l-.31.16-.31.15a8.11,8.11,0,0,0-1.7,1.29L6.39,26.24a7.83,7.83,0,0,0-2.32,5.05,3.36,3.36,0,0,1,3-2.71H18A14.43,14.43,0,0,0,32.46,14.15V3.56A3.37,3.37,0,0,1,35.2.18,8.29,8.29,0,0,0,32.46.89Z" style="fill:#fff"/></svg>